<mxfile host="Electron" agent="Mozilla/5.0 (Windows NT 10.0; Win64; x64) AppleWebKit/537.36 (KHTML, like Gecko) draw.io/24.7.8 Chrome/128.0.6613.36 Electron/32.0.1 Safari/537.36" version="24.7.8">
  <diagram name="Page-1" id="trQdiBlen_foMQJMFfYV">
    <mxGraphModel dx="1050" dy="621" grid="1" gridSize="10" guides="1" tooltips="1" connect="1" arrows="1" fold="1" page="1" pageScale="1" pageWidth="850" pageHeight="1100" math="0" shadow="0">
      <root>
        <mxCell id="0" />
        <mxCell id="1" parent="0" />
        <mxCell id="NOaE37VPc0i63LTB-BPz-1" value="&lt;b&gt;Raspberry Pi&lt;/b&gt;" style="rounded=0;whiteSpace=wrap;html=1;fontStyle=1" parent="1" vertex="1">
          <mxGeometry x="320" y="240" width="160" height="40" as="geometry" />
        </mxCell>
        <mxCell id="yJ3yhxOb3OaTGg_4wgQc-15" value="&lt;span style=&quot;font-size: 10px;&quot;&gt;2&lt;/span&gt;" style="text;html=1;align=center;verticalAlign=middle;resizable=0;points=[];autosize=1;strokeColor=none;fillColor=none;spacing=-3;" parent="1" vertex="1">
          <mxGeometry x="400" y="290" width="20" height="20" as="geometry" />
        </mxCell>
        <mxCell id="d269MqSO1VhRsPHPPl6g-1" value="&lt;b&gt;&amp;nbsp; Path Finding&lt;/b&gt;" style="rounded=0;whiteSpace=wrap;html=1;align=left;verticalAlign=top;" parent="1" vertex="1">
          <mxGeometry x="280" y="320" width="240" height="200" as="geometry" />
        </mxCell>
        <mxCell id="d269MqSO1VhRsPHPPl6g-2" style="edgeStyle=orthogonalEdgeStyle;rounded=0;orthogonalLoop=1;jettySize=auto;html=1;exitX=1;exitY=0.5;exitDx=0;exitDy=0;entryX=0.5;entryY=0;entryDx=0;entryDy=0;" parent="1" source="d269MqSO1VhRsPHPPl6g-3" target="d269MqSO1VhRsPHPPl6g-8" edge="1">
          <mxGeometry relative="1" as="geometry" />
        </mxCell>
        <mxCell id="d269MqSO1VhRsPHPPl6g-3" value="&lt;font style=&quot;font-size: 10px;&quot;&gt;LIDAR&lt;/font&gt;" style="rounded=0;whiteSpace=wrap;html=1;" parent="1" vertex="1">
          <mxGeometry x="375" y="360" width="50" height="20" as="geometry" />
        </mxCell>
        <mxCell id="d269MqSO1VhRsPHPPl6g-4" style="edgeStyle=orthogonalEdgeStyle;rounded=0;orthogonalLoop=1;jettySize=auto;html=1;exitX=0.5;exitY=0;exitDx=0;exitDy=0;entryX=0.5;entryY=1;entryDx=0;entryDy=0;" parent="1" source="d269MqSO1VhRsPHPPl6g-5" target="d269MqSO1VhRsPHPPl6g-3" edge="1">
          <mxGeometry relative="1" as="geometry" />
        </mxCell>
        <mxCell id="d269MqSO1VhRsPHPPl6g-5" value="&lt;font style=&quot;font-size: 10px;&quot;&gt;Navigation&lt;/font&gt;" style="rounded=0;whiteSpace=wrap;html=1;" parent="1" vertex="1">
          <mxGeometry x="355" y="420" width="90" height="20" as="geometry" />
        </mxCell>
        <mxCell id="d269MqSO1VhRsPHPPl6g-6" value="&lt;font style=&quot;font-size: 10px;&quot;&gt;7&lt;/font&gt;" style="text;html=1;align=center;verticalAlign=middle;resizable=0;points=[];autosize=1;strokeColor=none;fillColor=none;spacing=-3;" parent="1" vertex="1">
          <mxGeometry x="375" y="392" width="20" height="20" as="geometry" />
        </mxCell>
        <mxCell id="d269MqSO1VhRsPHPPl6g-7" value="&lt;font style=&quot;font-size: 10px;&quot;&gt;Grid Management&lt;/font&gt;" style="rounded=0;whiteSpace=wrap;html=1;" parent="1" vertex="1">
          <mxGeometry x="300" y="480" width="90" height="20" as="geometry" />
        </mxCell>
        <mxCell id="d269MqSO1VhRsPHPPl6g-8" value="&lt;font style=&quot;font-size: 10px;&quot;&gt;Obstacle Detection&lt;/font&gt;" style="rounded=0;whiteSpace=wrap;html=1;" parent="1" vertex="1">
          <mxGeometry x="410" y="480" width="90" height="20" as="geometry" />
        </mxCell>
        <mxCell id="d269MqSO1VhRsPHPPl6g-9" style="edgeStyle=orthogonalEdgeStyle;rounded=0;orthogonalLoop=1;jettySize=auto;html=1;exitX=0.166;exitY=-0.012;exitDx=0;exitDy=0;entryX=0.5;entryY=1;entryDx=0;entryDy=0;exitPerimeter=0;startArrow=classic;startFill=1;" parent="1" source="d269MqSO1VhRsPHPPl6g-8" edge="1">
          <mxGeometry relative="1" as="geometry">
            <mxPoint x="425" y="480" as="sourcePoint" />
            <mxPoint x="425" y="440" as="targetPoint" />
          </mxGeometry>
        </mxCell>
        <mxCell id="d269MqSO1VhRsPHPPl6g-10" style="edgeStyle=orthogonalEdgeStyle;rounded=0;orthogonalLoop=1;jettySize=auto;html=1;exitX=0.821;exitY=-0.017;exitDx=0;exitDy=0;entryX=0.5;entryY=1;entryDx=0;entryDy=0;exitPerimeter=0;" parent="1" source="d269MqSO1VhRsPHPPl6g-7" edge="1">
          <mxGeometry relative="1" as="geometry">
            <mxPoint x="374.5" y="480" as="sourcePoint" />
            <mxPoint x="374.5" y="440" as="targetPoint" />
          </mxGeometry>
        </mxCell>
        <mxCell id="d269MqSO1VhRsPHPPl6g-11" value="&lt;span style=&quot;font-size: 10px;&quot;&gt;8&lt;/span&gt;" style="text;html=1;align=center;verticalAlign=middle;resizable=0;points=[];autosize=1;strokeColor=none;fillColor=none;spacing=-3;" parent="1" vertex="1">
          <mxGeometry x="355" y="450" width="20" height="20" as="geometry" />
        </mxCell>
        <mxCell id="d269MqSO1VhRsPHPPl6g-12" value="&lt;font style=&quot;font-size: 10px;&quot;&gt;9&lt;/font&gt;" style="text;html=1;align=center;verticalAlign=middle;resizable=0;points=[];autosize=1;strokeColor=none;fillColor=none;spacing=-3;" parent="1" vertex="1">
          <mxGeometry x="405" y="450" width="20" height="20" as="geometry" />
        </mxCell>
        <mxCell id="d269MqSO1VhRsPHPPl6g-13" value="&lt;font style=&quot;font-size: 10px;&quot;&gt;10&lt;/font&gt;" style="text;html=1;align=center;verticalAlign=middle;resizable=0;points=[];autosize=1;strokeColor=none;fillColor=none;spacing=-3;" parent="1" vertex="1">
          <mxGeometry x="434" y="369" width="20" height="20" as="geometry" />
        </mxCell>
        <mxCell id="d269MqSO1VhRsPHPPl6g-14" style="edgeStyle=orthogonalEdgeStyle;rounded=0;orthogonalLoop=1;jettySize=auto;html=1;startArrow=classic;startFill=1;" parent="1" edge="1">
          <mxGeometry relative="1" as="geometry">
            <mxPoint x="400" y="280" as="sourcePoint" />
            <mxPoint x="400" y="360" as="targetPoint" />
          </mxGeometry>
        </mxCell>
      </root>
    </mxGraphModel>
  </diagram>
</mxfile>
